<?xml version="1.0" encoding="UTF-8"?>
<svg version="1.1" xmlns="http://www.w3.org/2000/svg" width="1033" height="1015">
<path d="M0 0 C340.89 0 681.78 0 1033 0 C1033 334.95 1033 669.9 1033 1015 C692.11 1015 351.22 1015 0 1015 C0 680.05 0 345.1 0 0 Z " fill="#010101" transform="translate(0,0)"/>
<path d="M0 0 C14.19 0 28.38 0 43 0 C43.495 148.005 43.495 148.005 44 299 C47.3 294.71 50.6 290.42 54 286 C56.94965255 282.58011299 59.89722504 279.27049253 63 276 C63.46744629 275.50000488 63.93489258 275.00000977 64.41650391 274.48486328 C76.40767978 261.72556938 89.69283477 252.38532049 105 244 C105.81210937 243.4946875 106.62421875 242.989375 107.4609375 242.46875 C110.54159377 240.68670884 113.71229445 239.3600606 117 238 C118.05316406 237.53980469 119.10632813 237.07960937 120.19140625 236.60546875 C127.70637159 233.44448101 135.26368921 230.91773239 143.125 228.75 C144.00615479 228.50403076 144.88730957 228.25806152 145.79516602 228.00463867 C159.39051899 224.37378393 172.69088994 223.52754639 186.6875 223.5 C187.5878598 223.49665649 188.4882196 223.49331299 189.41586304 223.48986816 C233.38473975 223.48011951 274.87795842 242.21363529 306 273 C308.47969293 275.5645114 310.76594149 278.21983829 313 281 C313.74507812 281.9075 314.49015625 282.815 315.2578125 283.75 C325.61883847 296.7418821 335.16520247 311.2624904 340.5625 327.0625 C341.81211173 330.66612037 343.06415936 334.14312474 344.625 337.625 C347.93481798 345.74909869 349.31372243 353.97333313 349.7890625 362.69921875 C349.74923228 364.96243104 349.74923228 364.96243104 351 366 C357.63749573 408.29586698 349.29831206 450.09391725 326 486 C323.18443269 489.84841361 320.17429381 493.44434227 317 497 C316.27039063 497.83789062 315.54078125 498.67578125 314.7890625 499.5390625 C307.1175222 508.23347484 299.1036942 516.28840548 290.0390625 523.52734375 C286.51387487 526.3955234 283.10320031 529.37822696 279.6875 532.375 C274.34890073 537.04450023 268.89185533 541.49484061 263.27905273 545.82885742 C258.13446632 549.82923561 253.22956579 554.0774458 248.32861328 558.37060547 C244.14722338 562.02727193 239.88365514 565.54272605 235.51953125 568.98046875 C232.48623989 571.41180462 229.52304897 573.91848936 226.5625 576.4375 C221.68941825 580.58380696 216.76485637 584.65796052 211.80078125 588.6953125 C208.73224401 591.2203292 205.70954078 593.79477805 202.6875 596.375 C198.15091874 600.24529418 193.52494045 603.97129039 188.8125 607.625 C183.81822125 611.50078974 179.07234992 615.54917694 174.4140625 619.828125 C171.0164431 622.88488291 167.46937337 625.74200238 163.91796875 628.6171875 C160.74582829 631.20755655 157.61949792 633.84675011 154.5 636.5 C150.57611498 639.83625007 146.6273831 643.13271339 142.625 646.375 C137.50472793 650.53988603 132.52872155 654.85738149 127.55615234 659.19604492 C122.99839724 663.16302295 118.34781879 666.99540629 113.64453125 670.7890625 C109.6972269 674.08917219 105.95811691 677.60045508 102.21484375 681.12890625 C100 683 100 683 98 683 C98 683.66 98 684.32 98 685 C180.5 685 263 685 348 685 C348 695.23 348 705.46 348 716 C247.68 716 147.36 716 44 716 C44 743.72 44 771.44 44 800 C30.14 800 16.28 800 2 800 C2 736.97 2 673.94 2 609 C-136.6 609 -275.2 609 -418 609 C-415.79998104 603.86662244 -413.66301655 599.64491886 -410.5625 595.125 C-409.91051636 594.16062012 -409.91051636 594.16062012 -409.24536133 593.17675781 C-405.45841729 587.60334221 -401.5676749 582.10311822 -397.66748047 576.60864258 C-390.41100534 566.37630055 -383.38707138 555.98371311 -376.3359375 545.609375 C-370.1344224 536.49077934 -363.9030567 527.39763955 -357.5625 518.375 C-353.37842928 512.42070155 -349.25139438 506.44122195 -345.2421875 500.3671875 C-339.59498204 491.84504107 -333.77139124 483.4382367 -328 475 C-327.49533203 474.26168945 -326.99066406 473.52337891 -326.47070312 472.76269531 C-317.23712009 459.26197959 -307.86284806 445.85891323 -298.4074707 432.51269531 C-293.09425008 425.0118856 -287.87536899 417.45250207 -282.70141602 409.85498047 C-279.64839692 405.38073619 -276.55035634 400.95066605 -273.375 396.5625 C-267.90763747 389.00004786 -262.71916677 381.24623591 -257.4934082 373.51623535 C-252.34685457 365.90535311 -247.1669383 358.32348827 -241.875 350.8125 C-230.14334573 334.14553105 -218.74915244 317.24366504 -207.52783203 300.22949219 C-203.81244018 294.62049977 -199.95495972 289.14797584 -195.9753418 283.72363281 C-192.78140844 279.3197865 -189.73633857 274.81745187 -186.6875 270.3125 C-185.36740314 268.36964513 -184.04708948 266.42693755 -182.7265625 264.484375 C-181.76991699 263.07575195 -181.76991699 263.07575195 -180.79394531 261.63867188 C-173.29461675 250.60808625 -165.67832933 239.65936252 -158.05419922 228.71484375 C-152.65571021 220.95843819 -147.30699006 213.16922026 -141.98046875 205.36328125 C-139.74789792 202.091545 -137.50442638 198.82761252 -135.25439453 195.56787109 C-131.20861668 189.70472164 -127.19628017 183.8196905 -123.20703125 177.91796875 C-122.77376526 177.27701767 -122.34049927 176.63606659 -121.894104 175.97569275 C-121.23085114 174.9944619 -121.23085114 174.9944619 -120.55419922 173.9934082 C-111.37005385 160.4061897 -102.09901791 146.88840653 -92.70458984 133.4453125 C-88.87143771 127.94647954 -85.08467106 122.41566099 -81.29443359 116.88720703 C-79.03252372 113.58947724 -76.76595318 110.29495218 -74.5 107 C-73.58331263 105.6666809 -72.66664593 104.33334759 -71.75 103 C-66.25 95 -66.25 95 -64.87597656 93.00146484 C-63.95599947 91.66328666 -63.03607791 90.32507029 -62.11621094 88.98681641 C-59.87563946 85.72729952 -57.63422307 82.46837199 -55.390625 79.2109375 C-50.03058077 71.42601643 -44.69579732 63.62430482 -39.375 55.8125 C-28.2006531 39.41334954 -16.82717411 23.16179538 -5.3125 7 C-4.8904126 6.40646729 -4.4683252 5.81293457 -4.03344727 5.20141602 C-1.11778361 1.11778361 -1.11778361 1.11778361 0 0 Z " fill="#F8F8F8" transform="translate(494,13)"/>
<path d="M0 0 C0.33 0 0.66 0 1 0 C1 164.34 1 328.68 1 498 C-111.86 498 -224.72 498 -341 498 C-338.58130216 488.32520863 -330.77666838 479.85873286 -324.96948242 471.89355469 C-321.136066 466.62048837 -317.45962744 461.27239392 -313.87963867 455.82519531 C-310.35290766 450.47896764 -306.68706964 445.23661475 -303 440 C-298.97059021 434.27399662 -294.97899783 428.53313917 -291.125 422.6875 C-284.9548998 413.3408931 -278.50881645 404.18525681 -272.09667969 395.00390625 C-268.72510133 390.17345677 -265.36281516 385.33655227 -262 380.5 C-257.99172723 374.73587141 -253.98193255 368.97283294 -249.96484375 363.21484375 C-242.80086718 352.94092387 -235.6888107 342.63507184 -228.64868164 332.27587891 C-224.1001612 325.59133934 -219.49964354 318.94456503 -214.875 312.3125 C-208.39366304 303.01756544 -201.97030761 293.68513862 -195.58544922 284.32373047 C-192.85212218 280.3176007 -190.11353652 276.31506967 -187.375 272.3125 C-186.83335205 271.52069336 -186.2917041 270.72888672 -185.73364258 269.91308594 C-182.32900767 264.93751619 -178.9172165 259.96693507 -175.5 255 C-174.13838054 253.0196196 -172.77690966 251.03913718 -171.41552734 249.05859375 C-170.45014651 247.65464562 -169.48430678 246.25101295 -168.51806641 244.84765625 C-162.62496248 236.28544461 -156.78486963 227.69333748 -151.04589844 219.02685547 C-145.01919734 209.92639297 -138.87984711 200.95591757 -132.43261719 192.1484375 C-128.61410163 186.9113446 -125.09211906 181.56458538 -121.6328125 176.08203125 C-111.47263544 160.15671716 -100.47210808 144.73529556 -89.74804688 129.18457031 C-82.92964703 119.29420207 -76.16443486 109.36838569 -69.41308594 99.43212891 C-62.96283052 89.94046466 -56.48950491 80.46486111 -50 71 C-49.32541748 70.01507568 -49.32541748 70.01507568 -48.63720703 69.01025391 C-40.15602133 56.62866339 -31.58381562 44.31058939 -23 32 C-22.03247803 30.61167969 -22.03247803 30.61167969 -21.04541016 29.1953125 C-2.28280234 2.28280234 -2.28280234 2.28280234 0 0 Z " fill="#050505" transform="translate(495,84)"/>
<path d="M0 0 C38.78215672 -0.97638864 73.04375485 7.01722454 103.53515625 32.08984375 C104.58123047 32.92322266 104.58123047 32.92322266 105.6484375 33.7734375 C120.27579515 45.74127558 131.11917508 63.46493961 137.453125 81.08984375 C138.40574852 83.73105265 139.47301785 86.2692417 140.59765625 88.83984375 C142.41252384 93.34750269 143.59874144 97.93528405 144.72265625 102.65234375 C144.88967041 103.34875977 145.05668457 104.04517578 145.22875977 104.76269531 C152.25844419 135.60213435 148.50083833 170.88953033 134.53515625 199.08984375 C134.04958252 200.10377197 134.04958252 200.10377197 133.55419922 201.13818359 C128.95997873 210.67930748 123.3689886 219.01326444 116.53515625 227.08984375 C115.69210937 228.08628906 114.8490625 229.08273437 113.98046875 230.109375 C106.81999706 238.21536891 98.80835285 245.14829181 90.53515625 252.08984375 C89.40420154 253.04859943 88.2739637 254.00820154 87.14453125 254.96875 C85.01056454 256.78220628 82.87261258 258.59074204 80.73046875 260.39453125 C78.53149817 262.2466525 76.33956704 264.10667746 74.15234375 265.97265625 C68.81834377 270.51803134 63.44782716 274.97614661 57.8828125 279.23828125 C54.45372277 281.94275468 51.14612826 284.78723729 47.82421875 287.62109375 C43.44730766 291.34398364 39.00450801 294.97866738 34.53515625 298.58984375 C29.00151972 303.06297667 23.52897099 307.59691439 18.11279297 312.21142578 C14.82904655 315.00612527 11.51076709 317.75079963 8.16015625 320.46484375 C3.03702558 324.63205499 -1.94079303 328.95296832 -6.91748047 333.29248047 C-10.55203578 336.45436818 -14.21996243 339.55827316 -17.96484375 342.58984375 C-26.77608429 349.73338303 -35.32340352 357.2088361 -43.71484375 364.83984375 C-47.87749132 368.61160019 -52.18164065 372.17297693 -56.546875 375.70703125 C-59.71901664 378.29740127 -62.84531126 380.93663313 -65.96484375 383.58984375 C-69.91123258 386.9444478 -73.88126868 390.26206547 -77.90234375 393.52734375 C-82.14876757 396.98258526 -86.31780669 400.51682209 -90.46484375 404.08984375 C-95.47466809 408.40622931 -100.540698 412.63812407 -105.6796875 416.80078125 C-107.71443192 418.47309574 -109.72355143 420.16070472 -111.71875 421.87890625 C-128.22957146 436.08984375 -128.22957146 436.08984375 -131.46484375 436.08984375 C-131.46484375 409.35984375 -131.46484375 382.62984375 -131.46484375 355.08984375 C-104.73484375 355.08984375 -78.00484375 355.08984375 -50.46484375 355.08984375 C-50.46484375 341.55984375 -50.46484375 328.02984375 -50.46484375 314.08984375 C-77.19484375 314.08984375 -103.92484375 314.08984375 -131.46484375 314.08984375 C-131.54544982 268.72206156 -131.54544982 268.72206156 -131.5625 249.67382812 C-131.5743555 236.53473342 -131.58827367 223.39566442 -131.61572266 210.2565918 C-131.63570625 200.68640265 -131.64857196 191.11623441 -131.65302074 181.54602498 C-131.65561971 176.48238644 -131.66169447 171.41880768 -131.67630386 166.35518837 C-131.6899664 161.58067276 -131.694049 156.80624107 -131.69105911 152.03170776 C-131.69160542 150.28753896 -131.69553086 148.5433671 -131.7032547 146.79921532 C-131.75352273 134.85326842 -131.36798756 123.51493937 -127.46484375 112.08984375 C-127.1126324 110.18007556 -126.8001616 108.26256 -126.52734375 106.33984375 C-124.8288658 95.86589637 -121.2768426 87.27164697 -116.38232422 77.89111328 C-115.50738494 76.17336395 -114.68955578 74.42687964 -113.875 72.6796875 C-100.92319038 45.0977164 -77.92228744 21.38363774 -49.21484375 10.40234375 C-47.97734375 9.96921875 -46.73984375 9.53609375 -45.46484375 9.08984375 C-44.2428125 8.62191406 -43.02078125 8.15398437 -41.76171875 7.671875 C-30.16557502 3.32265343 -18.61261018 0.2749825 -6.1640625 0.125 C-4.10912686 0.09823528 -2.05441938 0.0532713 0 0 Z " fill="#020202" transform="translate(669.46484375,267.91015625)"/>
<path d="M0 0 C0.33 0 0.66 0 1 0 C1 68.97 1 137.94 1 209 C-45.53 209 -92.06 209 -140 209 C-139.08179552 204.4089776 -138.61742859 203.04421735 -136.00390625 199.5234375 C-133.15014013 195.59196953 -130.36836351 191.62985683 -127.65234375 187.6015625 C-126.88180356 186.46141903 -126.11113045 185.32136539 -125.34033203 184.18139648 C-124.94831604 183.60106659 -124.55630005 183.02073669 -124.15240479 182.42282104 C-117.4935729 172.56905453 -110.77855321 162.7608137 -103.93408203 153.03466797 C-98.38595303 145.14620178 -92.94812785 137.18413412 -87.51416016 129.21679688 C-85.18419602 125.80562719 -82.84241961 122.40262336 -80.5 119 C-76.44741253 113.111606 -72.40874959 107.21381266 -68.375 101.3125 C-64.8497317 96.15508753 -61.31631751 91.00416321 -57.75 85.875 C-51.60957874 77.02162898 -45.57161723 68.09813611 -39.52102661 59.18325806 C-37.15433858 55.69706557 -34.78333714 52.21385395 -32.40898132 48.73287964 C-22.53985994 34.26269737 -12.80482507 19.72240134 -3.30249023 5.00756836 C-2.21421054 3.3301693 -1.10912582 1.66368873 0 0 Z " fill="#040404" transform="translate(435,267)"/>
<path d="M0 0 C7.68001803 7.20930724 14.17332947 17.98000746 15.05078125 28.56640625 C15.10058296 45.28317982 11.75789434 58.56347055 0.0625 71.25 C-9.44183631 79.98072754 -19.83724214 84.46264421 -32.16943359 87.43359375 C-34.05515458 87.89030909 -35.9289551 88.39556476 -37.80078125 88.90625 C-64.52276577 95.21439061 -98.26064521 93.07625218 -122.2421875 79.20703125 C-124.71133967 77.56718399 -126.98376235 75.84612951 -129.25 73.9375 C-129.94222656 73.35613281 -130.63445312 72.77476562 -131.34765625 72.17578125 C-140.73273428 63.55018931 -146.95126032 52.56272235 -147.62109375 39.765625 C-147.92097381 26.22405296 -147.08861687 16.24852841 -137.9375 5.625 C-136.39933962 4.03853376 -134.83764329 2.47444544 -133.25 0.9375 C-132.23873047 -0.0525 -132.23873047 -0.0525 -131.20703125 -1.0625 C-126.64424298 -5.28831588 -121.84077118 -8.36504193 -116.25 -11.0625 C-114.94289063 -11.69478516 -114.94289063 -11.69478516 -113.609375 -12.33984375 C-78.53014551 -28.10632804 -30.18992092 -24.7383267 0 0 Z " fill="#070707" transform="translate(438.25,907.0625)"/>
<path d="M0 0 C5.61 0 11.22 0 17 0 C17 78.21 17 156.42 17 237 C28.22 237 39.44 237 51 237 C51 242.28 51 247.56 51 253 C39.78 253 28.56 253 17 253 C17.00523682 255.41820068 17.01047363 257.83640137 17.01586914 260.32788086 C17.03240505 268.29868349 17.04347123 276.26948687 17.05181217 284.24030209 C17.05704097 289.07516827 17.06413854 293.91001694 17.07543945 298.74487305 C17.08626847 303.4067712 17.09227686 308.06865246 17.09487724 312.73056221 C17.09673147 314.51324288 17.10035203 316.29592259 17.10573006 318.07859612 C17.11294069 320.5666596 17.11399093 323.05465243 17.11352539 325.54272461 C17.11712067 326.28718842 17.12071594 327.03165222 17.12442017 327.79867554 C17.11405216 332.88594784 17.11405216 332.88594784 16 334 C11.05 334 6.1 334 1 334 C1 307.6 1 281.2 1 254 C-56.42 254 -113.84 254 -173 254 C-171.39172276 249.97930689 -169.94918553 247.19558039 -167.5625 243.6875 C-166.84835937 242.63433594 -166.13421875 241.58117187 -165.3984375 240.49609375 C-164.59953457 239.33033406 -163.8000312 238.16498568 -163 237 C-162.37013184 236.07985107 -162.37013184 236.07985107 -161.72753906 235.14111328 C-158.96047133 231.09954855 -156.18263711 227.06549148 -153.40136719 223.03369141 C-152.06964345 221.10106794 -150.74111459 219.16630218 -149.4140625 217.23046875 C-145.35384039 211.30975923 -141.2819957 205.39795528 -137.171875 199.51171875 C-130.47492142 189.92019658 -123.8203253 180.31142878 -117.36083984 170.55810547 C-112.24214737 162.83428702 -106.99640187 155.19930333 -101.75341797 147.55957031 C-99.23000977 143.87599866 -96.717203 140.18523693 -94.20410156 136.49462891 C-87.12694739 126.1017166 -80.02186993 115.73107873 -72.80078125 105.4375 C-64.78621116 94.0124269 -56.85618344 82.53449916 -49 71 C-46.45854069 67.270692 -43.91676577 63.54159913 -41.375 59.8125 C-40.73973389 58.88026611 -40.10446777 57.94803223 -39.44995117 56.98754883 C-35.33757729 50.95489689 -31.21178996 44.93173994 -27.07080078 38.91870117 C-24.02567915 34.49597059 -20.99215036 30.06544532 -17.96289062 25.63183594 C-5.04744526 6.72992701 -5.04744526 6.72992701 0 0 Z M0 28 C-1.769862 30.62449807 -3.48642856 33.26855512 -5.1875 35.9375 C-11.00160333 44.96787991 -16.9049188 53.93593611 -22.85708618 62.87576294 C-23.81702056 64.31804971 -24.77600618 65.76096845 -25.73397827 67.20455933 C-30.7846476 74.81425503 -35.89920906 82.33937412 -41.31713867 89.69506836 C-43.47858345 92.655492 -45.49438456 95.68170772 -47.5 98.75 C-51.83371981 105.32314149 -56.30668752 111.79385478 -60.8125 118.25 C-67.43562143 127.74057632 -73.99461734 137.27228517 -80.51806641 146.83154297 C-83.28363889 150.87829994 -86.06436631 154.91462729 -88.84375 158.9519043 C-91.26338884 162.46848675 -93.67685502 165.98913179 -96.08203125 169.515625 C-101.73221064 177.79761887 -107.42161122 186.04804084 -113.1875 194.25 C-118.09081461 201.23009153 -122.90862162 208.25574489 -127.6015625 215.37890625 C-129.3208761 217.98804005 -131.07026233 220.57436237 -132.8359375 223.15234375 C-133.30225586 223.83772217 -133.76857422 224.52310059 -134.24902344 225.22924805 C-135.14534641 226.54558326 -136.04679778 227.85844562 -136.95410156 229.16723633 C-139.43622384 232.75103943 -139.43622384 232.75103943 -140 237 C-93.47 237 -46.94 237 1 237 C1 168.03 1 99.06 1 28 C0.67 28 0.34 28 0 28 Z " fill="#F5F5F5" transform="translate(435,239)"/>
<path d="M0 0 C7.68001803 7.20930724 14.17332947 17.98000746 15.05078125 28.56640625 C15.10058296 45.28317982 11.75789434 58.56347055 0.0625 71.25 C-9.44183631 79.98072754 -19.83724214 84.46264421 -32.16943359 87.43359375 C-34.05515458 87.89030909 -35.9289551 88.39556476 -37.80078125 88.90625 C-64.52276577 95.21439061 -98.26064521 93.07625218 -122.2421875 79.20703125 C-124.71133967 77.56718399 -126.98376235 75.84612951 -129.25 73.9375 C-129.94222656 73.35613281 -130.63445312 72.77476562 -131.34765625 72.17578125 C-140.73273428 63.55018931 -146.95126032 52.56272235 -147.62109375 39.765625 C-147.92097381 26.22405296 -147.08861687 16.24852841 -137.9375 5.625 C-136.39933962 4.03853376 -134.83764329 2.47444544 -133.25 0.9375 C-132.23873047 -0.0525 -132.23873047 -0.0525 -131.20703125 -1.0625 C-126.64424298 -5.28831588 -121.84077118 -8.36504193 -116.25 -11.0625 C-114.94289063 -11.69478516 -114.94289063 -11.69478516 -113.609375 -12.33984375 C-78.53014551 -28.10632804 -30.18992092 -24.7383267 0 0 Z M-99.25 -5.0625 C-100.37921875 -4.70027344 -101.5084375 -4.33804688 -102.671875 -3.96484375 C-114.83245539 0.1680724 -125.86790076 8.54996946 -131.6875 20.25 C-133.50728664 25.2936328 -133.63485166 30.2562631 -133.6875 35.5625 C-133.69773193 36.36212158 -133.70796387 37.16174316 -133.71850586 37.9855957 C-133.5639366 48.46063554 -129.1135222 56.15651882 -122.25 63.9375 C-119.10400546 66.63976473 -115.82246023 68.84012012 -112.25 70.9375 C-111.61578125 71.32421875 -110.9815625 71.7109375 -110.328125 72.109375 C-89.26268779 83.81239567 -57.668346 82.8842315 -34.92578125 76.4921875 C-21.19526379 72.15094149 -10.4660711 65.6436079 -3.25 52.9375 C-2.83363281 52.22207031 -2.41726563 51.50664063 -1.98828125 50.76953125 C2.32816534 41.97003838 2.50885196 30.63667754 -0.35546875 21.35546875 C-6.42087838 8.42785306 -17.70425047 0.87525995 -30.62109375 -4.453125 C-51.3083548 -11.23915433 -78.72378456 -12.92744436 -99.25 -5.0625 Z " fill="#F4F4F4" transform="translate(438.25,907.0625)"/>
<path d="M0 0 C1.17113799 0.00138269 1.17113799 0.00138269 2.36593533 0.00279331 C3.70584782 0.00073132 3.70584782 0.00073132 5.07282925 -0.00137234 C6.55420376 0.00402058 6.55420376 0.00402058 8.06550503 0.00952244 C9.09952953 0.00937641 10.13355404 0.00923038 11.19891262 0.00907993 C14.63485175 0.00977956 18.07073742 0.01757425 21.50666714 0.02539158 C23.88178382 0.02725558 26.25690089 0.02867957 28.63201809 0.0296793 C34.89727233 0.03350586 41.16250356 0.04333732 47.42774868 0.05438328 C53.81537979 0.06459443 60.2030146 0.06917628 66.59065151 0.0742197 C79.13428144 0.08495947 91.67789425 0.10203754 104.22151089 0.12304783 C104.22151089 4.08304783 104.22151089 8.04304783 104.22151089 12.12304783 C73.20151089 12.12304783 42.18151089 12.12304783 10.22151089 12.12304783 C10.22151089 24.33304783 10.22151089 36.54304783 10.22151089 49.12304783 C36.95151089 49.12304783 63.68151089 49.12304783 91.22151089 49.12304783 C91.22151089 52.75304783 91.22151089 56.38304783 91.22151089 60.12304783 C64.82151089 60.12304783 38.42151089 60.12304783 11.22151089 60.12304783 C11.22151089 76.95304783 11.22151089 93.78304783 11.22151089 111.12304783 C6.60151089 111.12304783 1.98151089 111.12304783 -2.77848911 111.12304783 C-2.80160917 96.79810299 -2.81940247 82.47316256 -2.83030128 68.1482029 C-2.83553086 61.49731253 -2.84262983 54.84643997 -2.85392857 48.19555759 C-2.86475483 41.78301906 -2.87076539 35.37049279 -2.87336636 28.95794582 C-2.87522108 26.50540505 -2.87884258 24.05286498 -2.88421917 21.6003294 C-2.89142613 18.17828106 -2.8924802 14.75628412 -2.8920145 11.33422947 C-2.89560978 10.30924351 -2.89920506 9.28425755 -2.90290928 8.2282114 C-2.90153461 7.30127979 -2.90015995 6.37434818 -2.89874363 5.41932774 C-2.89966542 4.6090717 -2.90058722 3.79881567 -2.90153694 2.96400642 C-2.7369 0.50081962 -2.46615128 0.17062492 0 0 Z " fill="#F1F1F1" transform="translate(629.778489112854,885.8769521713257)"/>
<path d="M0 0 C41.91 0 83.82 0 127 0 C127 3.96 127 7.92 127 12 C108.52 12 90.04 12 71 12 C71 44.67 71 77.34 71 111 C66.71 111 62.42 111 58 111 C58 78.33 58 45.66 58 12 C38.86 12 19.72 12 0 12 C0 8.04 0 4.08 0 0 Z " fill="#F0F0F0" transform="translate(890,886)"/>
<path d="M0 0 C4.29 0 8.58 0 13 0 C13 32.67 13 65.34 13 99 C44.68 99 76.36 99 109 99 C109 102.96 109 106.92 109 111 C73.03 111 37.06 111 0 111 C0 74.37 0 37.74 0 0 Z " fill="#F2F2F2" transform="translate(21,886)"/>
<path d="M0 0 C0.33 0 0.66 0 1 0 C1 164.34 1 328.68 1 498 C0.67 498 0.34 498 0 498 C-0.33 335.31 -0.66 172.62 -1 5 C-1.99 5.495 -1.99 5.495 -3 6 C-2.42655063 3.13275314 -2.1385485 2.1385485 0 0 Z " fill="#1B1B1B" transform="translate(495,84)"/>
<path d="M0 0 C0.33 0 0.66 0 1 0 C1 68.97 1 137.94 1 209 C0.67 209 0.34 209 0 209 C-0.33 142.01 -0.66 75.02 -1 6 C-1.99 6 -2.98 6 -4 6 C-2.69593116 3.98079663 -1.36176581 1.98075027 0 0 Z " fill="#575757" transform="translate(435,267)"/>
<path d="M0 0 C0.33 0 0.66 0 1 0 C1 25.41 1 50.82 1 77 C0.67 77 0.34 77 0 77 C-0.33 53.57 -0.66 30.14 -1 6 C-1.99 6 -2.98 6 -4 6 C-2.69593116 3.98079663 -1.36176581 1.98075027 0 0 Z " fill="#3B3B3B" transform="translate(435,267)"/>
<path d="M0 0 C0.33 0 0.66 0 1 0 C1 9.24 1 18.48 1 28 C0.67 28 0.34 28 0 28 C-0.33 20.41 -0.66 12.82 -1 5 C-1.99 5.495 -1.99 5.495 -3 6 C-2.42655063 3.13275314 -2.1385485 2.1385485 0 0 Z " fill="#1C1C1C" transform="translate(495,84)"/>
<path d="M0 0 C0.33 0 0.66 0 1 0 C1 5.94 1 11.88 1 18 C0.67 18 0.34 18 0 18 C-0.33 14.04 -0.66 10.08 -1 6 C-1.99 6 -2.98 6 -4 6 C-2.69593116 3.98079663 -1.36176581 1.98075027 0 0 Z " fill="#313131" transform="translate(435,267)"/>
<path d="M0 0 C0.33 0 0.66 0 1 0 C1 2.97 1 5.94 1 9 C0.34 7.68 -0.32 6.36 -1 5 C-1.99 5.495 -1.99 5.495 -3 6 C-2.42655063 3.13275314 -2.1385485 2.1385485 0 0 Z " fill="#232323" transform="translate(495,84)"/>
</svg>
